<svg width="69" height="69" viewBox="0 0 69 69" fill="none" xmlns="http://www.w3.org/2000/svg">
<path d="M34.5 0C15.4388 0 0 15.4466 0 34.5C0 53.5534 15.4388 69 34.5 69C53.5613 69 69 53.5534 69 34.5C69 15.4466 53.5534 0 34.5 0ZM54.0552 17.2422L53.9847 17.4852L41.3843 52.3616C40.8903 53.4201 39.8318 54.1023 38.6635 54.1023C37.6128 54.1023 36.6406 53.5613 36.0995 52.6595L35.9741 52.4165L29.5053 39.4868L16.6384 33.0494C15.6661 32.6025 15.0075 31.6773 14.9056 30.6187V30.3365C14.8977 29.2544 15.478 28.2665 16.513 27.6863L16.7874 27.553L51.5461 14.9997L51.75 14.9448L51.9617 14.9056H52.1656L52.4165 14.9134L52.589 14.9448L52.8242 15.0153L53.0281 15.1016L53.2241 15.2114L53.3966 15.3368L53.5534 15.4858L53.6553 15.5956L53.8122 15.823L53.9141 16.0033C54.0082 16.1993 54.0631 16.4032 54.0866 16.6149L54.1023 16.8188C54.1023 16.9677 54.0866 17.1089 54.0552 17.2422Z" fill="#134697"/>
</svg>
